<svg width="40" height="40" viewBox="0 0 40 40" fill="none" xmlns="http://www.w3.org/2000/svg">
<g clip-path="url(#clip0)">
<path d="M5.00092 6.25012V1.25001C5.00092 0.559012 5.55994 0 6.2511 0C6.94193 0 7.50094 0.559012 7.50094 1.25001V6.25012C7.50094 6.94095 6.94193 7.49996 6.2511 7.49996C5.55994 7.50005 5.00092 6.94095 5.00092 6.25012ZM26.2511 7.50005C26.9418 7.50005 27.5011 6.94103 27.5011 6.2502V1.25001C27.5011 0.559012 26.9418 0 26.2511 0C25.5601 0 25.0007 0.559012 25.0007 1.25001V6.25012C25.0007 6.94095 25.5601 7.50005 26.2511 7.50005ZM40.0008 29.9997C40.0008 35.5227 35.5234 40 30.0008 40C24.4786 40 20.0009 35.5227 20.0009 29.9997C20.0009 24.4775 24.4786 20 30.0008 20C35.5234 20 40.0008 24.4774 40.0008 29.9997ZM37.5011 29.9997C37.5011 25.8645 34.1368 22.4998 30.0009 22.4998C25.8653 22.4998 22.501 25.8644 22.501 29.9997C22.501 34.1357 25.8653 37.4999 30.0009 37.4999C34.1368 37.4999 37.5011 34.1357 37.5011 29.9997ZM10.001 15H5.00092V20H10.001V15ZM5.00092 27.5H10.001V22.4998H5.00092V27.5ZM12.5009 20H17.5011V15H12.5009V20ZM12.5009 27.5H17.5011V22.4998H12.5009V27.5ZM2.50107 29.7511V12.4999H30.0009V17.5H32.501V7.74917C32.501 6.23058 31.2898 4.99995 29.7935 4.99995H28.7509V6.2502C28.7509 7.627 27.6301 8.75014 26.2512 8.75014C24.8719 8.75014 23.7512 7.627 23.7512 6.2502V4.99995H8.75086V6.2502C8.75086 7.627 7.63029 8.75014 6.25118 8.75014C4.87174 8.75014 3.75108 7.627 3.75108 6.2502V4.99995H2.70972C1.21331 4.99995 0.000976562 6.23058 0.000976562 7.74917V29.7512C0.000976562 31.2648 1.21331 32.5002 2.70972 32.5002H17.5011V29.9998H2.70972C2.59646 29.9997 2.50107 29.8827 2.50107 29.7511ZM25.0007 20V15H20.001V20H25.0007ZM33.7509 29.9997H30.0008V26.2496C30.0008 25.559 29.4418 25 28.7508 25C28.0598 25 27.5011 25.559 27.5011 26.2496V31.2501C27.5011 31.9408 28.0598 32.5001 28.7508 32.5001H33.7509C34.4419 32.5001 35.0009 31.9408 35.0009 31.2501C35.0009 30.5591 34.4419 29.9997 33.7509 29.9997Z" fill="#C45092"/>
</g>
<defs>
<clipPath id="clip0">
<rect width="40" height="40" fill="white"/>
</clipPath>
</defs>
</svg>
