<svg width="40" height="40" viewBox="0 0 40 40" fill="none" xmlns="http://www.w3.org/2000/svg">
<g clip-path="url(#clip0)">
<path d="M23.6053 25.6128C26.0231 24.5935 27.9319 23.206 29.3306 21.4498C30.7291 19.694 31.4284 17.7819 31.4284 15.7134C31.4284 13.6449 30.7291 11.7326 29.33 9.97672C27.9315 8.22082 26.0231 6.83317 23.6049 5.8136C21.1867 4.79418 18.5566 4.28467 15.7141 4.28467C12.8719 4.28467 10.2418 4.79449 7.82345 5.8136C5.40535 6.83309 3.49685 8.22075 2.09825 9.97672C0.699495 11.7329 0 13.6449 0 15.7135C0 17.4842 0.529058 19.1515 1.58553 20.714C2.64193 22.2762 4.09291 23.5934 5.93801 24.6646C5.78931 25.0221 5.63677 25.349 5.48049 25.6471C5.32412 25.9446 5.13828 26.2309 4.92235 26.5064C4.70656 26.782 4.53933 26.9976 4.42018 27.1533C4.30111 27.3095 4.10769 27.5295 3.83968 27.8118C3.57175 28.0946 3.40053 28.2806 3.32626 28.3696C3.32626 28.3547 3.29647 28.3884 3.2369 28.4702C3.17724 28.5521 3.14378 28.5891 3.13643 28.5821C3.12893 28.5741 3.09914 28.6113 3.04707 28.6931C2.995 28.7751 2.96889 28.8159 2.96889 28.8159L2.91299 28.9272C2.89094 28.9722 2.87577 29.0161 2.86842 29.061C2.86092 29.1054 2.85717 29.1541 2.85717 29.206C2.85717 29.2579 2.86451 29.3061 2.87968 29.3509C2.90947 29.5441 2.995 29.7001 3.13635 29.8197C3.27763 29.9386 3.43001 29.9979 3.59388 29.9979H3.66088C4.40478 29.8938 5.04478 29.7748 5.5804 29.6407C7.87208 29.0457 9.9407 28.0929 11.7859 26.7835C13.1251 27.0217 14.4346 27.1407 15.7143 27.1407C18.5568 27.1417 21.1872 26.6323 23.6053 25.6128Z" fill="#C45092"/>
<path d="M38.415 26.4384C39.4719 24.8834 39.9999 23.2136 39.9999 21.4277C39.9999 19.5972 39.4412 17.8848 38.3256 16.2927C37.2094 14.7008 35.6913 13.3761 33.7718 12.3196C34.1138 13.4356 34.285 14.5665 34.285 15.7125C34.285 17.7064 33.7871 19.5963 32.7894 21.3822C31.7924 23.1676 30.3638 24.7448 28.5038 26.1141C26.7775 27.3641 24.8132 28.3236 22.6107 28.9935C20.4087 29.6629 18.1095 29.998 15.7136 29.998C15.2673 29.998 14.6125 29.9685 13.7495 29.9091C16.7404 31.8729 20.2525 32.8554 24.285 32.8554C25.5649 32.8554 26.8743 32.7361 28.2137 32.498C30.0588 33.8079 32.1275 34.7599 34.419 35.3555C34.9547 35.4898 35.5947 35.6085 36.3387 35.7126C36.5172 35.7275 36.6812 35.6754 36.8299 35.5563C36.9787 35.4373 37.0756 35.2741 37.12 35.066C37.113 34.9766 37.12 34.9276 37.1424 34.9205C37.1644 34.9134 37.1607 34.8648 37.1312 34.7757C37.1018 34.6862 37.0868 34.6416 37.0868 34.6416L37.0311 34.5303C37.0156 34.5009 36.9904 34.4597 36.953 34.4077C36.9158 34.3561 36.8862 34.3184 36.8636 34.2962C36.8417 34.274 36.8085 34.2365 36.7636 34.1848C36.7192 34.1332 36.6892 34.0995 36.6742 34.0845C36.5998 33.9952 36.4288 33.8093 36.161 33.5264C35.8929 33.2439 35.6998 33.0245 35.5807 32.8683C35.4617 32.712 35.2942 32.4964 35.0785 32.2208C34.8629 31.9457 34.6766 31.6592 34.5204 31.3615C34.3642 31.0639 34.2116 30.7364 34.0628 30.3795C35.9081 29.3071 37.3587 27.9939 38.415 26.4384Z" fill="#C45092"/>
</g>
<defs>
<clipPath id="clip0">
<rect width="40" height="40" fill="white"/>
</clipPath>
</defs>
</svg>
