<svg width="40" height="40" viewBox="0 0 40 40" fill="none" xmlns="http://www.w3.org/2000/svg">
<g clip-path="url(#clip0)">
<path d="M3.83921 13.9734C4.34521 14.3304 5.87046 15.3909 8.41505 17.1542C10.9597 18.9175 12.9091 20.2752 14.2633 21.2274C14.4121 21.3318 14.7282 21.5587 15.2117 21.9084C15.6954 22.2583 16.0972 22.5411 16.417 22.7568C16.737 22.9724 17.1238 23.2143 17.5779 23.4821C18.0318 23.7496 18.4597 23.9509 18.8615 24.0841C19.2634 24.2184 19.6354 24.285 19.9776 24.285H20H20.0225C20.3647 24.285 20.7369 24.2183 21.1387 24.0841C21.5403 23.9509 21.9686 23.7494 22.4222 23.4821C22.8759 23.214 23.2628 22.9724 23.5828 22.7568C23.9028 22.5411 24.3043 22.2583 24.7881 21.9084C25.2716 21.5583 25.5881 21.3318 25.7368 21.2274C27.1057 20.2752 30.5881 17.857 36.1831 13.9729C37.2694 13.2143 38.1769 12.2989 38.906 11.2274C39.6356 10.1564 40 9.03287 40 7.8574C40 6.87512 39.6464 6.03428 38.9395 5.33494C38.2326 4.63544 37.3954 4.28589 36.4285 4.28589H3.57128C2.42552 4.28589 1.54378 4.67273 0.926223 5.44642C0.308741 6.22027 0 7.18754 0 8.34815C0 9.28563 0.409362 10.3015 1.22769 11.3952C2.04595 12.489 2.91674 13.3484 3.83921 13.9734Z" fill="#C45092"/>
<path d="M37.7676 16.3616C32.8871 19.6648 29.1813 22.232 26.6519 24.0626C25.8037 24.6873 25.1156 25.175 24.5872 25.5245C24.0587 25.8742 23.356 26.2314 22.4778 26.5958C21.6 26.9607 20.7819 27.1426 20.0228 27.1426H20.0001H19.9776C19.2187 27.1426 18.4002 26.9607 17.5223 26.5958C16.6445 26.2314 15.9413 25.8742 15.413 25.5245C14.8849 25.175 14.1965 24.6873 13.3484 24.0626C11.3394 22.5895 7.64152 20.0221 2.25469 16.3616C1.40626 15.7965 0.654775 15.1487 0 14.4197V32.1424C0 33.1251 0.349552 33.9655 1.04905 34.6649C1.74839 35.3646 2.58931 35.7143 3.57152 35.7143H36.4288C37.4108 35.7143 38.2516 35.3646 38.951 34.6649C39.6507 33.9653 40.0001 33.1252 40.0001 32.1424V14.4197C39.3601 15.1336 38.6163 15.7814 37.7676 16.3616Z" fill="#C45092"/>
</g>
<defs>
<clipPath id="clip0">
<rect width="40" height="40" fill="white"/>
</clipPath>
</defs>
</svg>
