<svg width="40" height="40" viewBox="0 0 40 40" fill="none" xmlns="http://www.w3.org/2000/svg">
<g clip-path="url(#clip0)">
<path d="M20.3029 2.85712H19.4229C18.9527 2.85712 18.5715 2.47588 18.5715 2.00575V1.97712C18.5715 0.885163 17.6863 0 16.5944 0H16.5487C15.4567 0 14.5715 0.885163 14.5715 1.97712V2.00575C14.5715 2.47595 14.1903 2.85719 13.7202 2.85719H12.8402C11.9029 2.85719 11.143 3.61699 11.143 4.55431V4.58863C11.143 5.52595 11.9029 6.28575 12.8402 6.28575H20.3031C21.2404 6.28575 22.0002 5.52588 22.0002 4.58863V4.55425C22.0001 3.61699 21.2403 2.85712 20.3029 2.85712ZM16.5715 2.85712C16.0981 2.85712 15.7144 2.47333 15.7144 2C15.7144 1.5266 16.0981 1.14281 16.5715 1.14281C17.0449 1.14281 17.4286 1.5266 17.4286 2C17.4286 2.4734 17.0449 2.85712 16.5715 2.85712ZM20.3876 36H6.00004C4.73769 36 3.71436 34.9767 3.71436 33.7143V6.28569C3.71436 5.02333 4.73769 4 5.4286 4H10.0596C10.021 4.1898 10.0001 4.38654 10.0001 4.58876C10.0001 6.15464 11.2741 7.42863 12.8402 7.42863H20.3029C21.8691 7.42863 23.1429 6.15464 23.1429 4.55418C23.1429 4.36444 23.1226 4.17948 23.087 4H26.5715C28.4054 4 29.4287 5.02333 29.4287 6.28569V23.4575C29.2387 23.4456 29.0502 23.4286 28.8573 23.4286C28.0668 23.4286 27.3036 23.5399 26.5715 23.7295V10.2857H6.57148V33.1429H19.7432C19.8059 34.1473 20.0253 35.1086 20.3876 36ZM28.8572 25.1429C24.7546 25.1429 21.4287 28.4688 21.4287 32.5714C21.4287 36.6741 24.7545 40 28.8572 40C32.96 40 36.2857 36.6741 36.2857 32.5714C36.2857 28.4688 32.9599 25.1429 28.8572 25.1429ZM33.7113 31.0452L29.1398 36.188C28.9147 36.4414 28.601 36.5714 28.2852 36.5714C28.0344 36.5714 27.7821 36.4893 27.5717 36.3209L24.7145 34.0352C24.2218 33.6412 24.1417 32.9218 24.5363 32.4291C24.9302 31.9358 25.6498 31.8559 26.1426 32.2506L28.1523 33.8583L32.003 29.5263C32.4218 29.0547 33.1445 29.0118 33.6163 29.4314C34.0883 29.851 34.1306 30.5731 33.7113 31.0452ZM23.7144 20H14.5715C14.2559 20 14.0001 19.7441 14.0001 19.4286V18.8571C14.0001 18.5415 14.2559 18.2857 14.5715 18.2857H23.7144C24.0299 18.2857 24.2859 18.5416 24.2859 18.8571V19.4286C24.2857 19.7441 24.0299 20 23.7144 20ZM23.7144 14.8571H14.5715C14.2559 14.8571 14.0001 14.6012 14.0001 14.2857V13.7142C14.0001 13.3986 14.2559 13.1428 14.5715 13.1428H23.7144C24.0299 13.1428 24.2859 13.3987 24.2859 13.7142V14.2857C24.2857 14.6013 24.0299 14.8571 23.7144 14.8571ZM20.8572 24.5714H14.5715C14.2559 24.5714 14.0001 24.3156 14.0001 24V23.4286C14.0001 23.1129 14.2559 22.8571 14.5715 22.8571H20.8572C21.1729 22.8571 21.4287 23.1129 21.4287 23.4286V24C21.4285 24.3156 21.1729 24.5714 20.8572 24.5714ZM19.7144 29.7143H14.5715C14.2559 29.7143 14 29.4584 14 29.1429V28.5714C14 28.2558 14.2559 28 14.5715 28H19.7144C20.03 28 20.2858 28.2558 20.2858 28.5714V29.1429C20.2858 29.4584 20.03 29.7143 19.7144 29.7143ZM12.906 12.7439L10.8015 15.1114C10.6978 15.2281 10.5534 15.288 10.408 15.288C10.2925 15.288 10.1764 15.2502 10.0796 15.1726L8.76422 14.1204C8.53736 13.939 8.50056 13.6079 8.68213 13.381C8.86344 13.1539 9.19481 13.1172 9.42161 13.2988L10.3468 14.0389L12.1195 12.0446C12.3123 11.8275 12.645 11.8077 12.8622 12.0009C13.0796 12.1941 13.0991 12.5265 12.906 12.7439ZM12.906 17.8279L10.8015 20.1954C10.6978 20.3121 10.5534 20.3719 10.408 20.3719C10.2925 20.3719 10.1764 20.3342 10.0796 20.2565L8.76422 19.2043C8.53736 19.0229 8.50056 18.6918 8.68213 18.465C8.86344 18.2378 9.19481 18.2011 9.42161 18.3827L10.3468 19.1229L12.1195 17.1286C12.3123 16.9115 12.645 16.8917 12.8622 17.085C13.0796 17.2781 13.0991 17.6106 12.906 17.8279ZM12.906 22.6899L10.8015 25.0575C10.6978 25.1741 10.5534 25.234 10.408 25.234C10.2925 25.234 10.1764 25.1963 10.0796 25.1186L8.76422 24.0663C8.53736 23.885 8.50056 23.5539 8.68213 23.327C8.86344 23.0999 9.19481 23.0631 9.42161 23.2448L10.3468 23.9848L12.1195 21.9905C12.3123 21.7735 12.645 21.7537 12.8622 21.9469C13.0796 22.1402 13.0991 22.4726 12.906 22.6899ZM12.906 27.5863L10.8015 29.9539C10.6978 30.0705 10.5534 30.1303 10.408 30.1303C10.2925 30.1303 10.1764 30.0926 10.0796 30.015L8.76422 28.9627C8.53736 28.7814 8.50056 28.4502 8.68213 28.2233C8.86344 27.9962 9.19481 27.9595 9.42161 28.1411L10.3468 28.8812L12.1195 26.8869C12.3123 26.6698 12.645 26.65 12.8622 26.8432C13.0796 27.0365 13.0991 27.369 12.906 27.5863Z" fill="#C45092"/>
</g>
<defs>
<clipPath id="clip0">
<rect width="40" height="40" fill="white"/>
</clipPath>
</defs>
</svg>
