<svg width="40" height="53" viewBox="0 0 40 53" fill="none" xmlns="http://www.w3.org/2000/svg">
<path d="M24.5232 21.0488C24.5232 19.9918 25.3757 19.1354 26.4292 19.1354C27.4798 19.1354 28.3329 19.9918 28.3329 21.0488C28.3329 22.1055 27.4798 22.9626 26.4292 22.9626C25.3755 22.9621 24.5232 22.1051 24.5232 21.0488ZM18.5946 4.74832H18.5788V7.37121H20.9961V4.82506C21.8279 4.40507 22.4045 3.55039 22.4045 2.55142C22.4045 1.14191 21.2682 0 19.8647 0C18.4616 0 17.3241 1.14191 17.3241 2.55142C17.3236 3.49449 17.8377 4.30725 18.5946 4.74832ZM13.3052 22.9621C14.3562 22.9621 15.2092 22.1051 15.2092 21.048C15.2092 19.9913 14.3561 19.1347 13.3052 19.1347C12.2517 19.1347 11.3993 19.9913 11.3993 21.048C11.3993 22.1051 12.2517 22.9621 13.3052 22.9621ZM19.8647 52.7273C22.7321 52.7273 25.1694 50.8954 26.0947 48.3334H13.6341C14.5598 50.8953 16.9964 52.7273 19.8647 52.7273ZM0 44.9532C0 43.9405 0.591669 43.0732 1.44305 42.6613V31.8127C1.44305 29.6729 3.10174 27.9257 5.19874 27.7871V22.5373C5.19874 22.5373 5.70892 12.9693 13.6342 9.99312C15.9884 9.10951 18.1377 8.75216 19.9999 8.68499C21.8636 8.75216 24.013 9.10951 26.3648 9.99263C34.2916 12.9688 34.8024 22.5368 34.8024 22.5368V27.7861C36.8979 27.9252 38.557 29.673 38.557 31.8122V42.6615C39.4082 43.0733 40 43.9413 40 44.9534C40 46.3619 38.8626 47.5039 37.4598 47.5039C36.057 47.5039 34.9195 46.362 34.9195 44.9534C34.9195 43.9407 35.5118 43.0733 36.3614 42.6615V35.4091C35.8892 35.6518 35.3595 35.7982 34.8029 35.836V38.3567C34.8173 38.5604 34.8339 38.7624 34.8339 38.9712C34.8339 39.1921 34.8196 39.4105 34.8029 39.6291V39.6875H34.8002C34.4618 43.887 31.1903 47.251 27.0438 47.7099L27.0473 47.7671H19.9999H12.9517L12.9564 47.7099C8.81005 47.251 5.53943 43.8868 5.20107 39.6875H5.19874V39.6291C5.18298 39.4105 5.16772 39.1921 5.16772 38.9712C5.16772 38.7629 5.18347 38.5604 5.19874 38.3567V35.8364C4.64005 35.7981 4.11042 35.6527 3.63827 35.409V42.6626C4.48927 43.0745 5.08131 43.9419 5.08131 44.9534C5.08131 46.3631 3.94413 47.5045 2.54047 47.5045C1.13817 47.5043 0 46.363 0 44.9532ZM24.2394 31.61C24.2394 30.9327 23.6925 30.3822 23.0169 30.3822C22.3402 30.3822 21.7933 30.932 21.7933 31.61C21.7933 32.2886 22.3402 32.839 23.0169 32.839C23.6925 32.839 24.2394 32.2886 24.2394 31.61ZM27.2494 31.61C27.2494 30.9327 26.7025 30.3822 26.0269 30.3822C25.3513 30.3822 24.8034 30.932 24.8034 31.61C24.8034 32.2886 25.3514 32.839 26.0269 32.839C26.7024 32.839 27.2494 32.2886 27.2494 31.61ZM30.2607 31.61C30.2607 30.9327 29.7138 30.3822 29.0382 30.3822C28.3615 30.3822 27.8147 30.932 27.8147 31.61C27.8147 32.2886 28.3615 32.839 29.0382 32.839C29.7138 32.839 30.2607 32.2886 30.2607 31.61ZM9.70586 21.4032C9.70586 24.663 12.2463 24.8762 12.2463 24.8762C13.1304 25.1568 14.9988 25.0175 15.8441 24.8762C16.6221 24.7442 19.477 24.4965 19.9315 24.4562C19.9489 24.4579 19.9763 24.4608 19.9993 24.4618C20.0234 24.4607 20.0505 24.4579 20.0665 24.4562C20.5216 24.4959 23.3754 24.7442 24.1543 24.8762C25.0011 25.0175 26.8681 25.1568 27.7527 24.8762C27.7527 24.8762 30.2923 24.6636 30.2923 21.4032C30.2923 21.4032 30.2923 17.7886 27.7527 15.5916C25.2894 13.4608 21.5871 12.9985 20.1342 12.971V12.9687C20.1135 12.9687 20.0883 12.9704 20.0664 12.9704C20.0452 12.9704 20.0188 12.9687 19.9992 12.9687C19.9785 12.9687 19.9527 12.9704 19.9314 12.9704C19.9098 12.9704 19.884 12.9687 19.8639 12.9687V12.971C18.4125 12.9985 14.7091 13.4608 12.2462 15.5916C9.70586 17.7886 9.70586 21.4032 9.70586 21.4032Z" fill="#C45092"/>
</svg>
