<svg width="40" height="40" viewBox="0 0 40 40" fill="none" xmlns="http://www.w3.org/2000/svg">
<g clip-path="url(#clip0)">
<path d="M2.7277 33.6358H9.09145V39.091C9.09145 39.3565 9.17637 39.5738 9.34723 39.7436C9.51762 39.9145 9.73545 40 10.0008 40H14.7449C14.9911 40 15.2041 39.9145 15.3841 39.7436C15.564 39.5738 15.6537 39.3564 15.6537 39.091V33.6358H30.0003C30.2651 33.6358 30.483 33.5514 30.6538 33.3805C30.8247 33.2097 30.9095 32.9923 30.9095 32.7268V29.0903C30.9095 28.8265 30.8247 28.6076 30.6538 28.4378C30.4835 28.2668 30.2651 28.1814 30.0003 28.1814H15.6533V24.829H25.3124C29.1 24.829 32.1914 23.6748 34.5879 21.3632C36.9835 19.0541 38.1819 16.0712 38.1819 12.4145C38.1819 8.76017 36.9835 5.77723 34.5879 3.46573C32.1919 1.1565 29.1 0 25.3124 0H10.0003C9.7349 0 9.51754 0.0853905 9.34676 0.255309C9.17637 0.426168 9.09098 0.644937 9.09098 0.908872V18.7786H2.7277C2.46236 18.7786 2.24492 18.8684 2.07414 19.0483C1.90383 19.2282 1.81836 19.4413 1.81836 19.6874V23.9199C1.81836 24.1854 1.90328 24.4028 2.07414 24.5736C2.245 24.7445 2.46189 24.8289 2.7277 24.8289H9.09145V28.1813H2.7277C2.46236 28.1813 2.24492 28.2668 2.07414 28.4377C1.90383 28.6075 1.81836 28.8259 1.81836 29.0902V32.7268C1.81836 32.9922 1.90328 33.2096 2.07414 33.3804C2.24492 33.5514 2.46228 33.6358 2.7277 33.6358ZM15.6533 6.05175H24.7442C26.7515 6.05175 28.3706 6.63866 29.602 7.81288C30.8329 8.98717 31.4485 10.5218 31.4485 12.4149C31.4485 14.3091 30.8329 15.8441 29.602 17.017C28.3706 18.1923 26.7514 18.7792 24.7442 18.7792H15.6533V6.05175Z" fill="#C45092"/>
</g>
<defs>
<clipPath id="clip0">
<rect width="40" height="40" fill="white"/>
</clipPath>
</defs>
</svg>
