<svg width="40" height="48" viewBox="0 0 40 48" fill="none" xmlns="http://www.w3.org/2000/svg">
<path d="M39.9498 12.3049C39.893 11.0473 39.893 9.8468 39.893 8.64632C39.893 7.67451 39.1542 6.93135 38.188 6.93135C31.0837 6.93135 25.6844 4.87338 21.1944 0.471618C20.5124 -0.157206 19.4894 -0.157206 18.8074 0.471618C14.3175 4.87338 8.91819 6.93135 1.81387 6.93135C0.847685 6.93135 0.108836 7.67451 0.108836 8.64632C0.108836 9.8468 0.108836 11.0473 0.0520011 12.3049C-0.175337 24.3097 -0.516345 40.7735 19.4326 47.6905L20.0009 47.8049L20.5693 47.6905C40.4613 40.7735 40.1772 24.3669 39.9498 12.3049ZM18.6369 28.9402C18.2959 29.226 17.898 29.3975 17.4434 29.3975H17.3865C16.9319 29.3975 16.4772 29.1688 16.193 28.8258L10.9074 22.9378L13.4649 20.6511L17.6139 25.2816L26.8211 16.478L29.1513 18.9933L18.6369 28.9402Z" fill="#C45092"/>
</svg>
