<svg width="70" height="71" viewBox="0 0 70 71" fill="none" xmlns="http://www.w3.org/2000/svg">
<circle cx="35" cy="35.9917" r="34.5" fill="white" stroke="#D1CECE"/>
<path d="M34.9999 35.9916C38.4649 35.9916 41.2999 33.1566 41.2999 29.6916C41.2999 26.2266 38.4649 23.3916 34.9999 23.3916C31.5349 23.3916 28.6999 26.2266 28.6999 29.6916C28.6999 33.1566 31.5349 35.9916 34.9999 35.9916ZM34.9999 39.1416C30.7474 39.1416 22.3999 41.1891 22.3999 45.4416V48.5916H47.5999V45.4416C47.5999 41.1891 39.2524 39.1416 34.9999 39.1416Z" fill="#D1CECE"/>
<path d="M34.9999 35.9916C38.4649 35.9916 41.2999 33.1566 41.2999 29.6916C41.2999 26.2266 38.4649 23.3916 34.9999 23.3916C31.5349 23.3916 28.6999 26.2266 28.6999 29.6916C28.6999 33.1566 31.5349 35.9916 34.9999 35.9916ZM34.9999 39.1416C30.7474 39.1416 22.3999 41.1891 22.3999 45.4416V48.5916H47.5999V45.4416C47.5999 41.1891 39.2524 39.1416 34.9999 39.1416Z" fill="#D1CECE"/>
</svg>
