<svg width="40" height="34" viewBox="0 0 40 34" fill="none" xmlns="http://www.w3.org/2000/svg">
<path d="M24.1383 5.72124C25.9878 6.86954 27.2847 8.8127 27.5208 11.0683C28.2751 11.4173 29.1122 11.618 29.9998 11.618C33.24 11.618 35.8662 9.01735 35.8662 5.80922C35.8662 2.60061 33.24 0 29.9998 0C26.7905 0.000988636 24.1872 2.55513 24.1383 5.72124ZM20.295 17.6155C23.5353 17.6155 26.1615 15.0144 26.1615 11.8063C26.1615 8.59817 23.5348 5.99756 20.295 5.99756C17.0553 5.99756 14.4276 8.59866 14.4276 11.8068C14.4276 15.0149 17.0553 17.6155 20.295 17.6155ZM22.7835 18.0115H17.8056C13.6638 18.0115 10.2943 21.3486 10.2943 25.45V31.4782L10.3097 31.5726L10.7291 31.7026C14.6816 32.9255 18.1156 33.3333 20.942 33.3333C26.4625 33.3333 29.6623 31.7748 29.8595 31.6754L30.2513 31.4791H30.2933V25.45C30.2948 21.3486 26.9252 18.0115 22.7835 18.0115ZM32.4892 12.0144H27.5497C27.4963 13.9714 26.6527 15.7336 25.3184 17.0011C28.9999 18.0851 31.6935 21.4658 31.6935 25.4589V27.3165C36.5706 27.1395 39.381 25.7708 39.5662 25.6788L39.9581 25.4821H40V19.4519C40 15.351 36.6305 12.0144 32.4892 12.0144ZM10.0012 11.6189C11.1489 11.6189 12.2166 11.2873 13.1212 10.7222C13.4087 8.8651 14.4141 7.24225 15.8502 6.13696C15.8562 6.02821 15.8667 5.92045 15.8667 5.81071C15.8667 2.60209 13.24 0.00148285 10.0012 0.00148285C6.76051 0.00148285 4.13478 2.60209 4.13478 5.81071C4.13478 9.01784 6.76051 11.6189 10.0012 11.6189ZM15.2697 17.0011C13.9418 15.7401 13.1012 13.9872 13.0398 12.0421C12.8566 12.0287 12.6754 12.0144 12.4887 12.0144H7.51129C3.36952 12.0144 0 15.351 0 19.4519V25.4811L0.0154749 25.574L0.434793 25.705C3.60564 26.6853 6.43554 27.1371 8.89355 27.2794V25.4589C8.89455 21.4658 11.5872 18.0861 15.2697 17.0011Z" fill="#C45092"/>
</svg>
