<svg width="102" height="61" viewBox="0 0 102 61" fill="none" xmlns="http://www.w3.org/2000/svg">
<path fill-rule="evenodd" clip-rule="evenodd" d="M12 0C5.37256 0 0 5.37256 0 12V34C0 40.6274 5.37256 46 12 46H41.8884L48.555 56.7246C51.2938 61.1309 57.7062 61.1309 60.445 56.7246L67.1115 46H90C96.6274 46 102 40.6274 102 34V12C102 5.37256 96.6274 0 90 0H12ZM66.04 42H90C94.4183 42 98 38.4185 98 34V12C98 7.58154 94.4183 4 90 4H12C7.58173 4 4 7.58154 4 12V34C4 38.4185 7.58173 42 12 42H42.96C43.6416 41.9868 44.3125 42.3232 44.6985 42.9443L51.9521 54.6128C53.1259 56.501 55.8741 56.501 57.0479 54.6128L64.3015 42.9443C64.6875 42.3232 65.3585 41.9868 66.04 42Z" fill="white"/>
</svg>
