<svg width="104" height="44" viewBox="0 0 104 44" fill="none" xmlns="http://www.w3.org/2000/svg">
<path d="M10.7498 18.6005C10.7498 16.1772 12.7143 14.2126 15.1376 14.2126H31.2861C31.5284 14.2126 31.7248 14.4091 31.7248 14.6514C31.7248 17.0748 29.7603 19.0393 27.337 19.0393H11.1885C10.9462 19.0393 10.7498 18.8429 10.7498 18.6005Z" fill="white"/>
<path d="M10.7498 25.3041C10.7498 22.8808 12.7143 20.9163 15.1376 20.9163H24.7313C24.9737 20.9163 25.1701 21.1127 25.1701 21.355C25.1701 23.7784 23.2056 25.7429 20.7822 25.7429H11.1885C10.9462 25.7429 10.7498 25.5465 10.7498 25.3041Z" fill="white"/>
<path d="M10.7498 32.008C10.7498 29.5846 12.7143 27.6201 15.1376 27.6201H18.4388C18.6811 27.6201 18.8776 27.8166 18.8776 28.0589C18.8776 30.4823 16.9131 32.4468 14.4897 32.4468H11.1885C10.9462 32.4468 10.7498 32.2503 10.7498 32.008Z" fill="white"/>
<path d="M40.912 30H43.097V22.59H46.612V20.5H43.097V19.968C43.097 18.866 43.629 18.505 44.427 18.505C45.396 18.505 46.213 18.847 46.802 19.284L47.6 17.365C46.745 16.757 45.681 16.415 44.427 16.415C42.413 16.415 40.912 17.346 40.912 19.987V30ZM48.2849 26.694C48.2849 29.278 49.5959 30.19 51.3629 30.19C52.2179 30.19 52.9969 30 53.5669 29.639L52.8829 27.72C52.5789 27.948 52.1419 28.1 51.6859 28.1C50.9639 28.1 50.4889 27.758 50.4889 26.713V16.7H48.2849V26.694ZM62.6278 20.5H60.4238V27.872C60.0818 28.062 59.6828 28.195 59.0748 28.195C57.5548 28.195 56.5668 27.549 56.5668 25.554V20.5H54.3818V25.402C54.3818 28.765 56.3008 30.285 58.7518 30.285C59.2838 30.285 59.9678 30.19 60.4238 29.962V30.551C60.4238 32.052 59.5688 32.679 58.3528 32.679C57.1558 32.679 56.0538 32.375 55.2748 31.9L54.5908 33.819C55.6168 34.427 56.8708 34.75 58.3528 34.75C60.8228 34.75 62.6278 33.325 62.6278 30.551V20.5ZM65.0402 30H66.6172V20.5H65.0402V30ZM64.8312 17.612C64.8312 18.163 65.2682 18.6 65.8382 18.6C66.3892 18.6 66.8262 18.163 66.8262 17.612C66.8262 17.042 66.3892 16.605 65.8382 16.605C65.2682 16.605 64.8312 17.042 64.8312 17.612ZM69.029 30H70.587V22.115C71.043 21.925 71.613 21.754 72.525 21.754C74.14 21.754 75.204 22.552 75.204 24.927V30H76.762V25.022C76.762 21.678 75.014 20.272 72.62 20.272C71.024 20.272 69.77 20.652 69.029 21.07V30ZM78.5391 29.221C79.4321 29.753 80.6861 30.171 82.2441 30.171C84.2011 30.171 86.1201 29.506 86.1201 27.53C86.1201 25.763 85.0181 24.775 82.5101 24.3C81.7691 24.167 80.3251 24.053 80.3251 22.951C80.3251 22.058 81.3511 21.754 82.4341 21.754C83.8021 21.754 84.8661 22.21 85.4171 22.59L85.9491 21.222C85.2651 20.804 84.1441 20.272 82.4341 20.272C80.6481 20.272 78.7481 20.823 78.7481 22.989C78.7481 25.155 80.7241 25.573 82.1301 25.839C83.5361 26.105 84.5431 26.504 84.5431 27.492C84.5431 28.29 83.4791 28.689 82.2441 28.689C80.4581 28.689 79.3181 28.005 79.0711 27.872L78.5391 29.221ZM88.1775 26.751C88.1775 29.278 89.5455 30.171 91.3885 30.171C92.4905 30.171 93.4785 29.848 94.2385 29.221C94.0485 28.765 93.8775 28.328 93.7065 27.872C93.2505 28.309 92.6045 28.575 91.8635 28.632C91.5595 28.67 91.2365 28.67 90.9515 28.632C90.2105 28.499 89.7355 27.986 89.7355 26.751V21.982H93.5355V20.5H89.7355V17.65H88.1775V26.751ZM102.648 23.692C102.648 21.146 100.976 20.272 98.7913 20.272C97.4233 20.272 96.2643 20.614 95.2763 21.222L95.8463 22.495C96.5113 22.115 97.4803 21.754 98.6963 21.754C100.14 21.754 101.09 22.172 101.09 23.502V23.787L99.2663 23.92C96.6253 24.053 94.9153 25.022 94.9153 26.922V27.017C94.9153 29.221 96.7773 30.228 98.9433 30.228C100.463 30.228 101.679 29.943 102.648 29.43V23.692ZM101.09 28.404C100.577 28.594 99.9123 28.746 98.9813 28.746C97.5373 28.746 96.4733 28.233 96.4733 27.017V26.922C96.4733 25.744 97.5373 25.269 99.2663 25.174L101.09 25.079V28.404Z" fill="white"/>
</svg>
