<svg width="109" height="44" viewBox="0 0 109 44" fill="none" xmlns="http://www.w3.org/2000/svg">
<path d="M7.73476 14.0903C11.1446 9.70149 19.9518 4.00105 27.9281 5.81799C33.6868 7.12976 37.5007 15.5533 37.9017 22.4354C38.2565 28.5243 30.9517 38.8379 14.3473 37.5404C-2.25713 36.2428 2.3487 21.0228 7.73476 14.0903Z" fill="url(#paint0_linear)"/>
<path d="M10.7498 18.6005C10.7498 16.1772 12.7143 14.2126 15.1376 14.2126H31.2861C31.5284 14.2126 31.7248 14.4091 31.7248 14.6514C31.7248 17.0748 29.7603 19.0393 27.337 19.0393H11.1885C10.9462 19.0393 10.7498 18.8429 10.7498 18.6005Z" fill="white"/>
<path d="M10.7498 25.3041C10.7498 22.8808 12.7143 20.9163 15.1376 20.9163H24.7313C24.9737 20.9163 25.1701 21.1127 25.1701 21.355C25.1701 23.7784 23.2056 25.7429 20.7822 25.7429H11.1885C10.9462 25.7429 10.7498 25.5465 10.7498 25.3041Z" fill="white"/>
<path d="M10.7498 32.008C10.7498 29.5846 12.7143 27.6201 15.1376 27.6201H18.4388C18.6811 27.6201 18.8776 27.8166 18.8776 28.0589C18.8776 30.4823 16.9131 32.4468 14.4897 32.4468H11.1885C10.9462 32.4468 10.7498 32.2503 10.7498 32.008Z" fill="white"/>
<path d="M45.912 30H48.097V22.59H51.612V20.5H48.097V19.968C48.097 18.866 48.629 18.505 49.427 18.505C50.396 18.505 51.213 18.847 51.802 19.284L52.6 17.365C51.745 16.757 50.681 16.415 49.427 16.415C47.413 16.415 45.912 17.346 45.912 19.987V30ZM53.2849 26.694C53.2849 29.278 54.5959 30.19 56.3629 30.19C57.2179 30.19 57.9969 30 58.5669 29.639L57.8829 27.72C57.5789 27.948 57.1419 28.1 56.6859 28.1C55.9639 28.1 55.4889 27.758 55.4889 26.713V16.7H53.2849V26.694ZM67.6278 20.5H65.4238V27.872C65.0818 28.062 64.6828 28.195 64.0748 28.195C62.5548 28.195 61.5668 27.549 61.5668 25.554V20.5H59.3818V25.402C59.3818 28.765 61.3008 30.285 63.7518 30.285C64.2838 30.285 64.9678 30.19 65.4238 29.962V30.551C65.4238 32.052 64.5688 32.679 63.3528 32.679C62.1558 32.679 61.0538 32.375 60.2748 31.9L59.5908 33.819C60.6168 34.427 61.8708 34.75 63.3528 34.75C65.8228 34.75 67.6278 33.325 67.6278 30.551V20.5Z" fill="#C45092"/>
<path d="M70.0402 30H71.6172V20.5H70.0402V30ZM69.8312 17.612C69.8312 18.163 70.2682 18.6 70.8382 18.6C71.3892 18.6 71.8262 18.163 71.8262 17.612C71.8262 17.042 71.3892 16.605 70.8382 16.605C70.2682 16.605 69.8312 17.042 69.8312 17.612ZM74.029 30H75.587V22.115C76.043 21.925 76.613 21.754 77.525 21.754C79.14 21.754 80.204 22.552 80.204 24.927V30H81.762V25.022C81.762 21.678 80.014 20.272 77.62 20.272C76.024 20.272 74.77 20.652 74.029 21.07V30ZM83.5391 29.221C84.4321 29.753 85.6861 30.171 87.2441 30.171C89.2011 30.171 91.1201 29.506 91.1201 27.53C91.1201 25.763 90.0181 24.775 87.5101 24.3C86.7691 24.167 85.3251 24.053 85.3251 22.951C85.3251 22.058 86.3511 21.754 87.4341 21.754C88.8021 21.754 89.8661 22.21 90.4171 22.59L90.9491 21.222C90.2651 20.804 89.1441 20.272 87.4341 20.272C85.6481 20.272 83.7481 20.823 83.7481 22.989C83.7481 25.155 85.7241 25.573 87.1301 25.839C88.5361 26.105 89.5431 26.504 89.5431 27.492C89.5431 28.29 88.4791 28.689 87.2441 28.689C85.4581 28.689 84.3181 28.005 84.0711 27.872L83.5391 29.221ZM93.1775 26.751C93.1775 29.278 94.5455 30.171 96.3885 30.171C97.4905 30.171 98.4785 29.848 99.2385 29.221C99.0485 28.765 98.8775 28.328 98.7065 27.872C98.2505 28.309 97.6045 28.575 96.8635 28.632C96.5595 28.67 96.2365 28.67 95.9515 28.632C95.2105 28.499 94.7355 27.986 94.7355 26.751V21.982H98.5355V20.5H94.7355V17.65H93.1775V26.751ZM107.648 23.692C107.648 21.146 105.976 20.272 103.791 20.272C102.423 20.272 101.264 20.614 100.276 21.222L100.846 22.495C101.511 22.115 102.48 21.754 103.696 21.754C105.14 21.754 106.09 22.172 106.09 23.502V23.787L104.266 23.92C101.625 24.053 99.9153 25.022 99.9153 26.922V27.017C99.9153 29.221 101.777 30.228 103.943 30.228C105.463 30.228 106.679 29.943 107.648 29.43V23.692ZM106.09 28.404C105.577 28.594 104.912 28.746 103.981 28.746C102.537 28.746 101.473 28.233 101.473 27.017V26.922C101.473 25.744 102.537 25.269 104.266 25.174L106.09 25.079V28.404Z" fill="#424242"/>
<defs>
<linearGradient id="paint0_linear" x1="5.37563" y1="16.7276" x2="37.3775" y2="26.9229" gradientUnits="userSpaceOnUse">
<stop stop-color="#C286CF"/>
<stop offset="1" stop-color="#EC848E"/>
</linearGradient>
</defs>
</svg>
