<?xml version="1.0" encoding="utf-8"?><svg xmlns="http://www.w3.org/2000/svg" xmlns:xlink="http://www.w3.org/1999/xlink"><symbol fill="none" viewBox="0 0 71 71" id="comment" xmlns="http://www.w3.org/2000/svg"><path d="M69.509 35.992c0 19.053-15.448 34.5-34.505 34.5C15.948 70.492.5 55.045.5 35.992c0-19.054 15.448-34.5 34.505-34.5 19.056 0 34.504 15.446 34.504 34.5z" fill="#fff" stroke="#D1CECE"/><path d="M44.821 25.34H25.95a2.366 2.366 0 0 0-2.359 2.358v21.229l4.718-4.718h16.513a2.366 2.366 0 0 0 2.36-2.359V27.698a2.366 2.366 0 0 0-2.36-2.358z" fill="#D1CECE"/></symbol><symbol fill="none" viewBox="0 0 18 19" id="controls" xmlns="http://www.w3.org/2000/svg"><path d="M2.333 5c1.173 0 2.144-.934 2.307-2.143h13.027c.184 0 .333-.16.333-.357 0-.197-.149-.357-.333-.357H4.64C4.477.933 3.506 0 2.333 0 1.047 0 0 1.122 0 2.5S1.047 5 2.333 5zm0-4.286C3.253.714 4 1.515 4 2.5s-.748 1.786-1.667 1.786S.667 3.485.667 2.5 1.414.714 2.333.714zM15.667 14c-1.173 0-2.144.934-2.307 2.143H.333c-.184 0-.333.16-.333.357 0 .198.15.357.333.357H13.36c.163 1.21 1.134 2.143 2.307 2.143C16.953 19 18 17.878 18 16.5S16.953 14 15.667 14zm0 4.286c-.92 0-1.667-.801-1.667-1.786s.748-1.786 1.667-1.786 1.666.801 1.666 1.786-.747 1.786-1.666 1.786zM17.667 9.225h-6.211C11.324 7.975 10.304 7 9.069 7s-2.255.976-2.387 2.225H.333A.34.34 0 0 0 0 9.572c0 .192.15.347.333.347h6.37C6.895 11.099 7.882 12 9.069 12s2.173-.902 2.366-2.081h6.232A.34.34 0 0 0 18 9.572a.34.34 0 0 0-.333-.347zm-8.598 2.081c-.957 0-1.736-.81-1.736-1.806s.779-1.806 1.736-1.806 1.736.81 1.736 1.806-.779 1.806-1.736 1.806z" fill="#D1CECE"/></symbol><symbol fill="none" viewBox="0 0 70 71" id="like" xmlns="http://www.w3.org/2000/svg"><circle cx="35" cy="35.992" r="34.5" fill="#fff" stroke="#D1CECE"/><path d="M34.593 53.085l-2.108-2.168c-7.83-7.122-12.95-11.922-12.95-17.805 0-4.8 3.614-8.516 8.282-8.516 2.56 0 5.12 1.24 6.776 3.252 1.656-2.013 4.216-3.252 6.776-3.252 4.668 0 8.282 3.716 8.282 8.516 0 5.883-5.12 10.683-12.95 17.805l-2.108 2.168z" fill="#D1CECE"/></symbol><symbol fill="none" viewBox="0 0 40 53" id="robot" xmlns="http://www.w3.org/2000/svg"><path d="M24.523 21.049c0-1.057.853-1.914 1.906-1.914 1.05 0 1.904.857 1.904 1.914a1.91 1.91 0 0 1-1.904 1.914 1.91 1.91 0 0 1-1.906-1.914zm-5.928-16.3h-.016V7.37h2.417V4.825a2.545 2.545 0 0 0 1.409-2.274A2.545 2.545 0 0 0 19.864 0a2.546 2.546 0 0 0-1.27 4.748zm-5.29 18.213a1.91 1.91 0 0 0 1.904-1.914 1.91 1.91 0 0 0-1.904-1.913 1.909 1.909 0 0 0-1.906 1.913 1.91 1.91 0 0 0 1.906 1.914zm6.56 29.765c2.867 0 5.304-1.832 6.23-4.394h-12.46c.925 2.562 3.361 4.394 6.23 4.394zM0 44.953c0-1.013.592-1.88 1.443-2.292V31.813a4.03 4.03 0 0 1 3.756-4.026v-5.25s.51-9.568 8.435-12.544c2.354-.883 4.504-1.24 6.366-1.308 1.864.067 4.013.425 6.365 1.308 7.927 2.976 8.437 12.544 8.437 12.544v5.25a4.03 4.03 0 0 1 3.755 4.025v10.85a2.546 2.546 0 0 1-1.097 4.842 2.546 2.546 0 0 1-2.54-2.55c0-1.013.592-1.88 1.441-2.293V35.41a3.998 3.998 0 0 1-1.558.427v2.52c.014.204.03.406.03.615 0 .221-.013.44-.03.658v.059H34.8c-.338 4.199-3.61 7.563-7.756 8.022l.003.057H12.952l.004-.057c-4.146-.459-7.417-3.823-7.755-8.023H5.2v-.058a9.125 9.125 0 0 1-.031-.658c0-.208.015-.41.03-.614v-2.52a3.99 3.99 0 0 1-1.56-.428v7.254a2.545 2.545 0 0 1-1.098 4.842A2.546 2.546 0 0 1 0 44.953zM24.24 31.61c0-.677-.547-1.228-1.223-1.228-.677 0-1.224.55-1.224 1.228 0 .679.547 1.229 1.224 1.229.675 0 1.222-.55 1.222-1.229zm3.01 0c0-.677-.547-1.228-1.223-1.228s-1.224.55-1.224 1.228c0 .679.548 1.229 1.224 1.229.675 0 1.222-.55 1.222-1.229zm3.01 0c0-.677-.546-1.228-1.222-1.228-.677 0-1.223.55-1.223 1.228 0 .679.546 1.229 1.223 1.229.676 0 1.223-.55 1.223-1.229zM9.707 21.403c0 3.26 2.54 3.473 2.54 3.473.884.28 2.753.141 3.598 0 .778-.132 3.633-.38 4.088-.42.017.002.044.005.067.006.024-.001.052-.004.068-.006.455.04 3.308.288 4.087.42.847.141 2.714.28 3.599 0 0 0 2.54-.212 2.54-3.473 0 0 0-3.614-2.54-5.811-2.464-2.131-6.166-2.594-7.619-2.621v-.002l-.068.001L20 12.97l-.068.001-.067-.001v.002c-1.451.027-5.155.49-7.618 2.62-2.54 2.198-2.54 5.812-2.54 5.812z" fill="#C45092"/></symbol><symbol fill="none" viewBox="0 0 40 48" id="shield" xmlns="http://www.w3.org/2000/svg"><path d="M39.95 12.305c-.057-1.258-.057-2.458-.057-3.659 0-.971-.739-1.715-1.705-1.715-7.104 0-12.504-2.058-16.994-6.46a1.746 1.746 0 0 0-2.387 0c-4.49 4.402-9.889 6.46-16.993 6.46-.966 0-1.705.744-1.705 1.715 0 1.2 0 2.401-.057 3.659-.227 12.005-.568 28.468 19.38 35.385l.569.115.568-.114c19.892-6.918 19.608-23.324 19.38-35.386zM18.637 28.94c-.341.286-.739.457-1.194.457h-.056c-.455 0-.91-.228-1.194-.571l-5.286-5.888 2.558-2.287 4.149 4.63 9.207-8.803 2.33 2.515-10.514 9.947z" fill="#C45092"/></symbol><symbol fill="none" viewBox="0 0 70 71" id="user" xmlns="http://www.w3.org/2000/svg"><circle cx="35" cy="35.992" r="34.5" fill="#fff" stroke="#D1CECE"/><path d="M35 35.992c3.465 0 6.3-2.835 6.3-6.3s-2.835-6.3-6.3-6.3-6.3 2.835-6.3 6.3 2.835 6.3 6.3 6.3zm0 3.15c-4.253 0-12.6 2.047-12.6 6.3v3.15h25.2v-3.15c0-4.253-8.348-6.3-12.6-6.3z" fill="#D1CECE"/><path d="M35 35.992c3.465 0 6.3-2.835 6.3-6.3s-2.835-6.3-6.3-6.3-6.3 2.835-6.3 6.3 2.835 6.3 6.3 6.3zm0 3.15c-4.253 0-12.6 2.047-12.6 6.3v3.15h25.2v-3.15c0-4.253-8.348-6.3-12.6-6.3z" fill="#D1CECE"/></symbol><symbol fill="none" viewBox="0 0 40 34" id="users" xmlns="http://www.w3.org/2000/svg"><path d="M24.138 5.721c1.85 1.149 3.147 3.092 3.383 5.347.754.35 1.591.55 2.479.55 3.24 0 5.866-2.6 5.866-5.809C35.866 2.601 33.24 0 30 0c-3.21.001-5.813 2.555-5.862 5.721zm-3.843 11.895c3.24 0 5.866-2.602 5.866-5.81 0-3.208-2.626-5.808-5.866-5.808-3.24 0-5.867 2.6-5.867 5.809 0 3.208 2.627 5.809 5.867 5.809zm2.488.396h-4.977c-4.142 0-7.512 3.337-7.512 7.438v6.028l.016.095.42.13c3.952 1.223 7.386 1.63 10.212 1.63 5.52 0 8.72-1.558 8.918-1.658l.391-.196h.042V25.45c.002-4.101-3.368-7.438-7.51-7.438zm9.706-5.998h-4.94a7.128 7.128 0 0 1-2.23 4.987c3.68 1.084 6.375 4.465 6.375 8.458v1.858c4.877-.177 7.687-1.546 7.872-1.638l.392-.197H40v-6.03c0-4.101-3.37-7.438-7.51-7.438zm-22.488-.395a5.869 5.869 0 0 0 3.12-.897 7.177 7.177 0 0 1 2.73-4.585c.005-.109.016-.217.016-.326C15.867 2.602 13.24 0 10 0c-3.24 0-5.866 2.601-5.866 5.81 0 3.207 2.626 5.808 5.866 5.808zM15.27 17a7.132 7.132 0 0 1-2.23-4.959c-.183-.013-.365-.028-.551-.028H7.51C3.37 12.014 0 15.351 0 19.452v6.03l.015.092.42.131c3.17.98 6 1.432 8.459 1.574v-1.82c0-3.993 2.693-7.373 6.376-8.458z" fill="#C45092"/></symbol></svg>