<svg width="112" height="223" viewBox="0 0 112 223" fill="none" xmlns="http://www.w3.org/2000/svg">
<path d="M1.832 222H0.832C0.832 222.552 1.27972 223 1.832 223V222ZM37.367 222V223C37.9193 223 38.367 222.552 38.367 222H37.367ZM37.367 101.49V100.49C36.8147 100.49 36.367 100.938 36.367 101.49H37.367ZM94.532 101.49V102.49C95.0843 102.49 95.532 102.042 95.532 101.49H94.532ZM94.532 67.5H95.532C95.532 66.9477 95.0843 66.5 94.532 66.5V67.5ZM37.367 67.5H36.367C36.367 68.0523 36.8147 68.5 37.367 68.5V67.5ZM97.622 47.724L97.0262 48.5271C97.2734 48.7105 97.5912 48.7698 97.888 48.688C98.1847 48.6061 98.4272 48.3922 98.5453 48.108L97.622 47.724ZM110.6 16.515L111.523 16.899C111.703 16.4681 111.56 15.9705 111.18 15.7L110.6 16.515ZM1.832 223H37.367V221H1.832V223ZM38.367 222V101.49H36.367V222H38.367ZM37.367 102.49H94.532V100.49H37.367V102.49ZM95.532 101.49V67.5H93.532V101.49H95.532ZM94.532 66.5H37.367V68.5H94.532V66.5ZM38.367 67.5V58.848H36.367V67.5H38.367ZM38.367 58.848C38.367 50.031 40.4956 44.3927 44.015 40.9451C47.5373 37.4947 52.6392 36.055 58.997 36.055V34.055C52.3768 34.055 46.6637 35.5507 42.6155 39.5164C38.5644 43.4848 36.367 49.743 36.367 58.848H38.367ZM58.997 36.055C74.5161 36.055 87.598 41.532 97.0262 48.5271L98.2178 46.9209C88.488 39.702 74.9959 34.055 58.997 34.055V36.055ZM98.5453 48.108L111.523 16.899L109.677 16.131L96.6987 47.34L98.5453 48.108ZM111.18 15.7C97.0906 5.68126 79.58 0.06499 58.997 0.06499V2.06499C79.202 2.06499 96.2994 7.57272 110.02 17.3299L111.18 15.7ZM58.997 0.06499C42.4847 0.06499 27.9129 3.87969 17.4637 13.2602C6.99422 22.659 0.832 37.4918 0.832 59.157H2.832C2.832 37.8712 8.87529 23.658 18.7998 14.7485C28.7446 5.82079 42.7553 2.06499 58.997 2.06499V0.06499ZM0.832 59.157V222H2.832V59.157H0.832Z"/>
</svg>
