<svg width="46" height="221" viewBox="0 0 46 221" fill="none" xmlns="http://www.w3.org/2000/svg">
<path d="M5.394 220H4.394C4.394 220.552 4.84171 221 5.394 221V220ZM40.929 220V221C41.4813 221 41.929 220.552 41.929 220H40.929ZM40.929 65.5H41.929C41.929 64.9477 41.4813 64.5 40.929 64.5V65.5ZM5.394 65.5V64.5C4.84171 64.5 4.394 64.9477 4.394 65.5H5.394ZM5.394 221H40.929V219H5.394V221ZM41.929 220V65.5H39.929V220H41.929ZM40.929 64.5H5.394V66.5H40.929V64.5ZM4.394 65.5V220H6.394V65.5H4.394ZM0.377001 23.167C0.377001 35.761 10.7035 46.106 23.007 46.106V44.106C11.8265 44.106 2.377 34.6749 2.377 23.167H0.377001ZM23.007 46.106C35.6103 46.106 45.946 35.7703 45.946 23.167H43.946C43.946 34.6657 34.5057 44.106 23.007 44.106V46.106ZM45.946 23.167C45.946 10.5453 35.5917 0.536995 23.007 0.536995V2.53699C34.5243 2.53699 43.946 11.6867 43.946 23.167H45.946ZM23.007 0.536995C10.722 0.536995 0.377001 10.5544 0.377001 23.167H2.377C2.377 11.6775 11.808 2.53699 23.007 2.53699V0.536995Z"/>
</svg>
