<svg width="89" height="223" viewBox="0 0 89 223" fill="none" xmlns="http://www.w3.org/2000/svg">
<path d="M87.369 212.129L87.9041 212.974C88.2989 212.724 88.4679 212.234 88.311 211.793L87.369 212.129ZM76.245 180.92L77.187 180.584C77.0803 180.285 76.8376 180.054 76.5333 179.962C76.229 179.871 75.8992 179.929 75.645 180.12L76.245 180.92ZM37.311 1.69999H38.311C38.311 1.1477 37.8633 0.699986 37.311 0.699986V1.69999ZM1.467 1.69999V0.699986C0.914715 0.699986 0.467001 1.1477 0.467001 1.69999H1.467ZM0.467001 164.234C0.467001 185.404 5.83848 199.914 15.011 209.127C24.1837 218.339 36.995 222.09 51.525 222.09V220.09C37.318 220.09 25.1003 216.425 16.4283 207.715C7.75602 199.006 2.467 185.088 2.467 164.234H0.467001ZM51.525 222.09C65.562 222.09 78.4315 218.973 87.9041 212.974L86.834 211.284C77.7665 217.027 65.298 220.09 51.525 220.09V222.09ZM88.311 211.793L77.187 180.584L75.303 181.256L86.4271 212.465L88.311 211.793ZM75.645 180.12C70.8819 183.692 63.9876 186.1 56.778 186.1V188.1C64.4004 188.1 71.7201 185.564 76.845 181.72L75.645 180.12ZM56.778 186.1C51.0494 186.1 46.4969 184.743 43.3601 181.499C40.2151 178.247 38.311 172.911 38.311 164.543H36.311C36.311 173.17 38.2694 179.112 41.9224 182.89C45.5836 186.676 50.7646 188.1 56.778 188.1V186.1ZM38.311 164.543V1.69999H36.311V164.543H38.311ZM37.311 0.699986H1.467V2.69999H37.311V0.699986ZM0.467001 1.69999V164.234H2.467V1.69999H0.467001Z"/>
</svg>
