<svg width="137" height="162" viewBox="0 0 137 162" fill="none" xmlns="http://www.w3.org/2000/svg">
<path d="M1.467 161H0.467001C0.467001 161.552 0.914715 162 1.467 162V161ZM37.311 161V162C37.8633 162 38.311 161.552 38.311 161H37.311ZM37.311 39.872L36.9653 38.9336C36.5722 39.0785 36.311 39.453 36.311 39.872H37.311ZM100.038 161H99.038C99.038 161.552 99.4857 162 100.038 162V161ZM135.573 161V162C136.125 162 136.573 161.552 136.573 161H135.573ZM1.467 15.77L0.97674 14.8984C0.661861 15.0755 0.467001 15.4087 0.467001 15.77H1.467ZM1.467 162H37.311V160H1.467V162ZM38.311 161V39.872H36.311V161H38.311ZM37.6567 40.8103C43.3998 38.6945 51.9321 36.855 64.503 36.855V34.855C51.7359 34.855 42.9643 36.7235 36.9653 38.9336L37.6567 40.8103ZM64.503 36.855C75.1687 36.855 83.7298 39.444 89.6476 45.8426C95.5827 52.26 99.038 62.6996 99.038 78.806H101.038C101.038 62.4674 97.5408 51.4315 91.1159 44.4846C84.6737 37.519 75.4673 34.855 64.503 34.855V36.855ZM99.038 78.806V161H101.038V78.806H99.038ZM100.038 162H135.573V160H100.038V162ZM136.573 161V81.278H134.573V161H136.573ZM136.573 81.278C136.573 53.7607 129.264 33.6333 116.875 20.3788C104.479 7.11724 87.1182 0.864983 67.284 0.864983V2.86498C86.6928 2.86498 103.476 8.97273 115.414 21.7445C127.359 34.5231 134.573 54.1022 134.573 81.278H136.573ZM67.284 0.864983C41.844 0.864983 16.0093 6.44261 0.97674 14.8984L1.95726 16.6416C16.5887 8.41138 42.048 2.86498 67.284 2.86498V0.864983ZM0.467001 15.77V161H2.467V15.77H0.467001Z"/>
</svg>
