<svg width="133" height="166" viewBox="0 0 133 166" fill="none" xmlns="http://www.w3.org/2000/svg">
<path d="M1.905 148.64L0.96201 148.307C0.802282 148.76 0.986584 149.262 1.40113 149.504L1.905 148.64ZM69.576 63.047L69.3971 64.0309L69.4059 64.0324L69.576 63.047ZM117.471 48.524L116.903 49.3472C117.16 49.5245 117.486 49.5715 117.782 49.4743C118.079 49.377 118.314 49.1466 118.416 48.8514L117.471 48.524ZM128.286 17.315L129.231 17.6424C129.386 17.194 129.205 16.698 128.797 16.4555L128.286 17.315ZM63.396 98.582L63.2193 99.5663L63.2316 99.5684L63.396 98.582ZM13.029 117.122L13.5329 116.258C13.2754 116.108 12.9643 116.081 12.6845 116.183C12.4047 116.286 12.1852 116.508 12.086 116.789L13.029 117.122ZM1.40113 149.504C16.389 158.247 37.5754 165.09 64.014 165.09V163.09C37.9226 163.09 17.085 156.337 2.40887 147.776L1.40113 149.504ZM64.014 165.09C78.5941 165.09 95.5449 163.156 108.886 156.368C115.57 152.967 121.376 148.333 125.508 142.09C129.645 135.84 132.067 128.035 132.067 118.358H130.067C130.067 127.685 127.738 135.098 123.841 140.986C119.939 146.88 114.428 151.304 107.979 154.585C95.0556 161.161 78.4799 163.09 64.014 163.09V165.09ZM132.067 118.358C132.067 103.446 127.346 91.1897 117.106 81.7405C106.903 72.325 91.3154 65.7858 69.7461 62.0616L69.4059 64.0324C90.7876 67.7242 105.946 74.163 115.75 83.2103C125.518 92.2238 130.067 103.915 130.067 118.358H132.067ZM69.7549 62.0631C64.5114 61.1098 57.5966 60.5246 51.8411 58.695C48.9883 57.7882 46.5505 56.6086 44.837 55.0147C43.1561 53.451 42.148 51.4698 42.148 48.833H40.148C40.148 52.0672 41.4188 54.5665 43.4748 56.4791C45.4983 58.3614 48.2555 59.6538 51.2352 60.601C57.1444 62.4794 64.4436 63.1302 69.3971 64.0309L69.7549 62.0631ZM42.148 48.833C42.148 44.6507 45.0725 41.667 50.1268 39.6827C55.173 37.7016 62.0593 36.855 69.267 36.855V34.855C61.9517 34.855 54.7785 35.7079 49.3959 37.821C44.0215 39.931 40.148 43.4363 40.148 48.833H42.148ZM69.267 36.855C90.4139 36.855 108.131 43.2976 116.903 49.3472L118.039 47.7008C108.889 41.3904 90.7622 34.855 69.267 34.855V36.855ZM118.416 48.8514L129.231 17.6424L127.341 16.9876L116.526 48.1966L118.416 48.8514ZM128.797 16.4555C117.25 9.58941 98.2255 0.864983 69.267 0.864983V2.86498C97.7825 2.86498 116.456 11.4446 127.775 18.1745L128.797 16.4555ZM69.267 0.864983C53.5919 0.864983 37.3881 3.26507 25.0713 10.5843C12.6754 17.9505 4.304 30.2526 4.304 49.76H6.304C6.304 30.9513 14.3096 19.306 26.093 12.3037C37.9554 5.2544 53.7331 2.86498 69.267 2.86498V0.864983ZM4.304 49.76C4.304 59.2651 6.46626 66.9005 10.132 73.0647C13.7956 79.2253 18.9287 83.8627 24.7926 87.4243C36.4848 94.5259 51.1888 97.4069 63.2193 99.5663L63.5727 97.5977C51.5012 95.4311 37.1592 92.5956 25.8309 85.7149C20.1845 82.2854 15.3138 77.8653 11.851 72.0424C8.39049 66.2233 6.304 58.9494 6.304 49.76H4.304ZM63.2316 99.5684C71.5444 100.954 79.3811 102.943 85.1149 105.847C90.8743 108.765 94.223 112.445 94.223 117.122H96.223C96.223 111.293 92.0012 107.094 86.0187 104.063C80.0104 101.019 71.9336 98.9911 63.5604 97.5956L63.2316 99.5684ZM94.223 117.122C94.223 121.691 90.7111 124.704 84.8717 126.6C79.0755 128.482 71.3999 129.1 64.014 129.1V131.1C71.4601 131.1 79.389 130.482 85.4893 128.502C91.5464 126.535 96.223 123.059 96.223 117.122H94.223ZM64.014 129.1C36.764 129.1 17.1679 118.379 13.5329 116.258L12.5251 117.986C16.3061 120.191 36.262 131.1 64.014 131.1V129.1ZM12.086 116.789L0.96201 148.307L2.84799 148.973L13.972 117.455L12.086 116.789Z"/>
</svg>
