<svg width="112" height="207" viewBox="0 0 112 207" fill="none" xmlns="http://www.w3.org/2000/svg">
<path d="M110.544 189.64L111.124 190.455C111.487 190.196 111.636 189.728 111.487 189.307L110.544 189.64ZM99.42 158.122L100.363 157.789C100.255 157.482 100.003 157.247 99.6895 157.159C99.3758 157.071 99.0389 157.142 98.7868 157.348L99.42 158.122ZM72.228 169.555L72.059 168.569C72.0389 168.573 72.0189 168.577 71.999 168.582L72.228 169.555ZM56.778 170.791L56.8404 169.793L56.8306 169.792L56.778 170.791ZM37.311 81.49V80.49C36.7587 80.49 36.311 80.9377 36.311 81.49H37.311ZM96.948 81.49V82.49C97.5003 82.49 97.948 82.0423 97.948 81.49H96.948ZM96.948 47.5H97.948C97.948 46.9477 97.5003 46.5 96.948 46.5V47.5ZM37.311 47.5H36.311C36.311 48.0523 36.7587 48.5 37.311 48.5V47.5ZM37.311 1.14999H38.311C38.311 0.597704 37.8633 0.149988 37.311 0.149988V1.14999ZM1.467 1.14999V0.149988C0.914715 0.149988 0.467001 0.597704 0.467001 1.14999H1.467ZM0.467001 146.998C0.467001 168.511 6.6304 183.342 17.1372 192.779C27.6239 202.197 42.2719 206.09 58.941 206.09V204.09C42.5471 204.09 28.4581 200.258 18.4736 191.291C8.5091 182.342 2.467 168.127 2.467 146.998H0.467001ZM58.941 206.09C79.2132 206.09 97.0333 200.475 111.124 190.455L109.964 188.825C96.2447 198.581 78.8388 204.09 58.941 204.09V206.09ZM111.487 189.307C107.779 178.801 104.071 168.295 100.363 157.789L98.477 158.455C102.185 168.961 105.893 179.467 109.601 189.973L111.487 189.307ZM98.7868 157.348C92.1528 162.776 82.7466 166.737 72.059 168.569L72.397 170.541C83.3394 168.665 93.0912 164.592 100.053 158.896L98.7868 157.348ZM71.999 168.582C66.8539 169.792 61.7002 170.097 56.8404 169.793L56.7156 171.789C61.7438 172.103 67.0961 171.79 72.457 170.528L71.999 168.582ZM56.8306 169.792C51.1143 169.492 46.5392 167.847 43.3784 164.399C40.2109 160.943 38.311 155.511 38.311 147.307H36.311C36.311 155.789 38.2736 161.79 41.9041 165.75C45.5413 169.718 50.6997 171.472 56.7254 171.79L56.8306 169.792ZM38.311 147.307V81.49H36.311V147.307H38.311ZM37.311 82.49H96.948V80.49H37.311V82.49ZM97.948 81.49V47.5H95.948V81.49H97.948ZM96.948 46.5H37.311V48.5H96.948V46.5ZM38.311 47.5V1.14999H36.311V47.5H38.311ZM37.311 0.149988H1.467V2.14999H37.311V0.149988ZM0.467001 1.14999V146.998H2.467V1.14999H0.467001Z"/>
</svg>
