<svg width="137" height="235" viewBox="0 0 137 235" fill="none" xmlns="http://www.w3.org/2000/svg">
<path d="M135.32 1.5H136.32C136.32 0.947716 135.872 0.5 135.32 0.5V1.5ZM99.476 1.5V0.5C98.9237 0.5 98.476 0.947716 98.476 1.5H99.476ZM99.476 121.392L99.9616 122.266C100.279 122.09 100.476 121.755 100.476 121.392H99.476ZM36.749 1.5H37.749C37.749 0.947716 37.3013 0.5 36.749 0.5V1.5ZM1.214 1.5V0.5C0.661716 0.5 0.214001 0.947716 0.214001 1.5H1.214ZM99.476 155.382H100.476C100.476 155.035 100.297 154.714 100.002 154.531C99.7069 154.349 99.3388 154.333 99.0288 154.488L99.476 155.382ZM15.737 186.9L16.2576 186.046C16.0007 185.89 15.6868 185.857 15.4031 185.957C15.1194 186.058 14.8961 186.281 14.795 186.564L15.737 186.9ZM4.613 218.109L3.67105 217.773C3.5104 218.224 3.69155 218.725 4.1032 218.969L4.613 218.109ZM135.32 0.5H99.476V2.5H135.32V0.5ZM98.476 1.5V121.392H100.476V1.5H98.476ZM98.9904 120.518C93.575 123.526 87.2528 125.645 77.537 125.645V127.645C87.5972 127.645 94.2531 125.438 99.9616 122.266L98.9904 120.518ZM77.537 125.645C65.2943 125.645 55.3992 123.04 48.558 116.608C41.7282 110.186 37.749 99.7663 37.749 83.694H35.749C35.749 100.067 39.8038 111.122 47.188 118.065C54.5608 124.997 65.0597 127.645 77.537 127.645V125.645ZM37.749 83.694V1.5H35.749V83.694H37.749ZM36.749 0.5H1.214V2.5H36.749V0.5ZM0.214001 1.5V81.222H2.214V1.5H0.214001ZM0.214001 81.222C0.214001 108.758 8.07403 128.89 21.0877 142.139C34.1003 155.388 52.1477 161.635 72.284 161.635V159.635C52.5593 159.635 35.0717 153.522 22.5146 140.738C9.95847 127.954 2.214 108.379 2.214 81.222H0.214001ZM72.284 161.635C81.0051 161.635 92.3077 160.084 99.9232 156.276L99.0288 154.488C91.8123 158.096 80.8669 159.635 72.284 159.635V161.635ZM98.476 155.382V164.961H100.476V155.382H98.476ZM98.476 164.961C98.476 176.977 95.0585 185.331 89.366 190.691C83.6622 196.061 75.5228 198.569 65.795 198.569V200.569C75.8433 200.569 84.5443 197.978 90.737 192.147C96.941 186.306 100.476 177.356 100.476 164.961H98.476ZM65.795 198.569C46.4826 198.569 28.7467 193.661 16.2576 186.046L15.2164 187.754C28.0653 195.589 46.1734 200.569 65.795 200.569V198.569ZM14.795 186.564L3.67105 217.773L5.55495 218.445L16.679 187.236L14.795 186.564ZM4.1032 218.969C20.9692 228.964 41.546 234.25 65.795 234.25V232.25C41.84 232.25 21.6288 227.03 5.1228 217.249L4.1032 218.969ZM65.795 234.25C86.0665 234.25 103.713 228.401 116.3 216.757C128.9 205.102 136.32 187.745 136.32 164.961H134.32C134.32 187.291 127.062 204.078 114.942 215.289C102.81 226.512 85.6936 232.25 65.795 232.25V234.25ZM136.32 164.961V1.5H134.32V164.961H136.32Z"/>
</svg>
